<?xml version="1.0" encoding="UTF-8"?>
<svg version="1.1" xmlns="http://www.w3.org/2000/svg" width="512" height="512">
<path d="M0 0 C3.34886753 2.62233356 4.84179429 4.0742414 5.56762695 8.3215332 C5.54144287 9.55218506 5.51525879 10.78283691 5.48828125 12.05078125 C5.48120651 12.70958786 5.47413177 13.36839447 5.46684265 14.04716492 C5.43900979 16.13680034 5.37630819 18.22368476 5.3125 20.3125 C5.28740205 21.73498714 5.26459148 23.15751659 5.24414062 24.58007812 C5.18922446 28.05426861 5.10303685 31.5268655 5 35 C6.2065625 34.94199219 7.413125 34.88398438 8.65625 34.82421875 C24.72352672 34.27422222 24.72352672 34.27422222 29.42969221 38.3446871 C34.40690967 43.59133511 35.5902353 49.55713914 35.50120544 56.55239868 C35.50950704 57.78749272 35.50950704 57.78749272 35.51797634 59.04753816 C35.53151131 61.78672592 35.51665305 64.52499115 35.50170898 67.26416016 C35.50549471 69.23587937 35.51099683 71.20759591 35.51808167 73.17930603 C35.5320186 78.52008751 35.52087956 83.8605462 35.50437045 89.20130968 C35.49050075 94.79455844 35.49698208 100.38778883 35.50050354 105.98104858 C35.50320369 115.37088207 35.48974525 124.76058759 35.46655273 134.15039062 C35.4399288 145.00455768 35.43820158 155.858511 35.4499411 166.71269953 C35.46072059 177.15971461 35.45453144 187.60665241 35.44038582 198.05366135 C35.43462908 202.49771324 35.43470622 206.94170854 35.43945122 211.38576126 C35.44422406 216.61760397 35.43410643 221.84921263 35.41249657 227.08101082 C35.40693332 229.00065764 35.40645916 230.92032697 35.41144943 232.83997536 C35.41740795 235.46076597 35.40488648 238.08084231 35.38768005 240.7015686 C35.3936901 241.4607152 35.39970014 242.21986181 35.40589231 243.00201285 C35.33251778 249.14999993 33.59228862 252.99826573 29.8125 257.75 C24.18616132 262.25107095 18.65312491 262.08736729 11.71484375 262.04296875 C10.45663818 262.03676514 9.19843262 262.03056152 7.90209961 262.02416992 C6.94440674 262.01619385 5.98671387 262.00821777 5 262 C5.02094727 262.8878418 5.04189453 263.77568359 5.06347656 264.69042969 C5.13175677 267.99294455 5.1818487 271.2947067 5.21972656 274.59765625 C5.23980982 276.02551121 5.26708252 277.45328425 5.30175781 278.88085938 C5.35042669 280.93640368 5.37299967 282.99085855 5.390625 285.046875 C5.41157227 286.28276367 5.43251953 287.51865234 5.45410156 288.79199219 C4.91827698 292.57733362 4.0003117 293.71663866 1 296 C-1.73962288 296.72771233 -4.23214139 296.57971577 -7 296 C-9.43119623 294.12984906 -10.64069173 292.71861655 -12 290 C-12.08543895 287.89471067 -12.10714725 285.78668843 -12.09765625 283.6796875 C-12.09443359 282.42285156 -12.09121094 281.16601562 -12.08789062 279.87109375 C-12.07951172 278.55238281 -12.07113281 277.23367188 -12.0625 275.875 C-12.05748489 274.53515789 -12.05292201 273.195314 -12.04882812 271.85546875 C-12.03701086 268.57026794 -12.02053617 265.28515603 -12 262 C-12.88623047 262.00870117 -13.77246094 262.01740234 -14.68554688 262.02636719 C-16.43448242 262.03651855 -16.43448242 262.03651855 -18.21875 262.046875 C-19.37310547 262.05557617 -20.52746094 262.06427734 -21.71679688 262.07324219 C-28.16458896 261.92940387 -33.35249327 260.78029263 -38 256 C-40.96100387 251.19990164 -41.43058561 247.08681741 -41.38768005 241.57421875 C-41.39306559 240.74028091 -41.39845113 239.90634308 -41.40399987 239.0471344 C-41.41827598 236.26043829 -41.41117663 233.47421742 -41.40405273 230.6875 C-41.40975643 228.68651956 -41.41672069 226.68554237 -41.42485046 224.68457031 C-41.44279566 219.25489694 -41.44161106 213.82538505 -41.43590808 208.39569092 C-41.43281863 203.86270482 -41.43890588 199.32974986 -41.44494683 194.79676819 C-41.45899452 184.10406914 -41.45742831 173.41144998 -41.44604492 162.71875 C-41.43455935 151.68623341 -41.4486463 140.65395979 -41.4754414 129.62147522 C-41.49758723 120.14870999 -41.5042384 110.67602109 -41.49836498 101.20323181 C-41.49499204 95.5457477 -41.49743314 89.88841939 -41.51461601 84.23095703 C-41.53006552 78.91210649 -41.52615162 73.59361647 -41.50731087 68.27478027 C-41.50361968 66.32287669 -41.50674884 64.3709465 -41.51719666 62.41906738 C-41.53037181 59.75422154 -41.51889025 57.09057536 -41.50120544 54.42578125 C-41.51081045 53.65359756 -41.52041546 52.88141388 -41.53031152 52.08583069 C-41.45960525 46.9068696 -40.25127725 43.99824309 -37 40 C-33.11130149 36.49068671 -30.23734154 34.86287713 -24.98828125 34.90234375 C-23.85229492 34.90717773 -23.85229492 34.90717773 -22.69335938 34.91210938 C-21.51483398 34.92467773 -21.51483398 34.92467773 -20.3125 34.9375 C-19.11657227 34.94426758 -19.11657227 34.94426758 -17.89648438 34.95117188 C-15.93095743 34.9629415 -13.96546915 34.98087652 -12 35 C-12.01571045 34.17798096 -12.0314209 33.35596191 -12.04760742 32.5090332 C-12.11005073 28.77692572 -12.14902136 25.04492828 -12.1875 21.3125 C-12.21263672 20.01892578 -12.23777344 18.72535156 -12.26367188 17.39257812 C-12.27333984 16.14541016 -12.28300781 14.89824219 -12.29296875 13.61328125 C-12.3086792 12.46641846 -12.32438965 11.31955566 -12.34057617 10.13793945 C-11.95876461 6.62007281 -11.11890677 4.80754372 -9 2 C-5.48175489 -0.34549674 -4.14224306 -0.57991403 0 0 Z " fill="#000000" transform="translate(102,184)"/>
<path d="M0 0 C2.90000514 0.60739327 4.18543046 2.06343542 5.90234375 4.3984375 C7.31146471 7.21667942 7.01417928 9.57095032 7 12.71875 C6.99677734 13.97558594 6.99355469 15.23242188 6.99023438 16.52734375 C6.97766602 18.50541016 6.97766602 18.50541016 6.96484375 20.5234375 C6.95982864 21.86327961 6.95526576 23.2031235 6.95117188 24.54296875 C6.93935461 27.82816956 6.92287992 31.11328147 6.90234375 34.3984375 C7.78857422 34.38973633 8.67480469 34.38103516 9.58789062 34.37207031 C10.75384766 34.36530273 11.91980469 34.35853516 13.12109375 34.3515625 C14.85262695 34.33851074 14.85262695 34.33851074 16.61914062 34.32519531 C23.06693271 34.46903363 28.25483702 35.61814487 32.90234375 40.3984375 C35.86334762 45.19853586 36.33292936 49.31162009 36.2900238 54.82421875 C36.29540934 55.65815659 36.30079488 56.49209442 36.30634362 57.3513031 C36.32061973 60.13799921 36.31352038 62.92422008 36.30639648 65.7109375 C36.31210018 67.71191794 36.31906444 69.71289513 36.32719421 71.71386719 C36.34513941 77.14354056 36.34395481 82.57305245 36.33825183 88.00274658 C36.33516238 92.53573268 36.34124963 97.06868764 36.34729058 101.60166931 C36.36133827 112.29436836 36.35977206 122.98698752 36.34838867 133.6796875 C36.3369031 144.71220409 36.35099005 155.74447771 36.37778515 166.77696228 C36.39993098 176.24972751 36.40658215 185.72241641 36.40070873 195.19520569 C36.39733579 200.8526898 36.39977689 206.51001811 36.41695976 212.16748047 C36.43240927 217.48633101 36.42849537 222.80482103 36.40965462 228.12365723 C36.40596343 230.07556081 36.40909259 232.027491 36.41954041 233.97937012 C36.43271556 236.64421596 36.421234 239.30786214 36.40354919 241.97265625 C36.4179567 243.13093178 36.4179567 243.13093178 36.43265527 244.31260681 C36.361949 249.4915679 35.153621 252.40019441 31.90234375 256.3984375 C28.01364524 259.90775079 25.13968529 261.53556037 19.890625 261.49609375 C19.13330078 261.49287109 18.37597656 261.48964844 17.59570312 261.48632812 C16.81001953 261.47794922 16.02433594 261.46957031 15.21484375 261.4609375 C14.41755859 261.45642578 13.62027344 261.45191406 12.79882812 261.44726562 C10.83330118 261.435496 8.8678129 261.41756098 6.90234375 261.3984375 C6.9180542 262.22045654 6.93376465 263.04247559 6.94995117 263.8894043 C7.01239448 267.62151178 7.05136511 271.35350922 7.08984375 275.0859375 C7.11498047 276.37951172 7.14011719 277.67308594 7.16601562 279.00585938 C7.17568359 280.25302734 7.18535156 281.50019531 7.1953125 282.78515625 C7.21102295 283.93201904 7.2267334 285.07888184 7.24291992 286.26049805 C6.86419948 289.74988428 5.96039049 291.58816315 3.90234375 294.3984375 C1.20703043 296.51618368 -0.16979757 296.39590623 -3.66015625 296.2734375 C-7.09765625 295.3984375 -7.09765625 295.3984375 -8.79418945 293.77832031 C-10.56563629 290.54399483 -10.4373568 288.12154729 -10.390625 284.4453125 C-10.38638016 283.78509094 -10.38213531 283.12486938 -10.37776184 282.44464111 C-10.3610306 280.34548359 -10.32339176 278.24730254 -10.28515625 276.1484375 C-10.27010209 274.72136808 -10.25641496 273.29428354 -10.24414062 271.8671875 C-10.21114626 268.37728933 -10.15940368 264.8879588 -10.09765625 261.3984375 C-11.30421875 261.45644531 -12.51078125 261.51445312 -13.75390625 261.57421875 C-29.82118297 262.12421528 -29.82118297 262.12421528 -34.52734846 258.0537504 C-39.50456592 252.80710239 -40.68789155 246.84129836 -40.59886169 239.84603882 C-40.60439609 239.02264279 -40.60993049 238.19924676 -40.61563259 237.35089934 C-40.62916756 234.61171158 -40.6143093 231.87344635 -40.59936523 229.13427734 C-40.60315096 227.16255813 -40.60865308 225.19084159 -40.61573792 223.21913147 C-40.62967485 217.87834999 -40.61853581 212.5378913 -40.6020267 207.19712782 C-40.588157 201.60387906 -40.59463833 196.01064867 -40.59815979 190.41738892 C-40.60085994 181.02755543 -40.5874015 171.63784991 -40.56420898 162.24804688 C-40.53758505 151.39387982 -40.53585783 140.5399265 -40.54759735 129.68573797 C-40.55837684 119.23872289 -40.55218769 108.79178509 -40.53804207 98.34477615 C-40.53228533 93.90072426 -40.53236247 89.45672896 -40.53710747 85.01267624 C-40.54188031 79.78083353 -40.53176268 74.54922487 -40.51015282 69.31742668 C-40.50458957 67.39777986 -40.50411541 65.47811053 -40.50910568 63.55846214 C-40.5150642 60.93767153 -40.50254273 58.31759519 -40.4853363 55.6968689 C-40.49134635 54.9377223 -40.49735639 54.17857569 -40.50354856 53.39642465 C-40.43017403 47.24843757 -38.68994487 43.40017177 -34.91015625 38.6484375 C-29.28381757 34.14736655 -23.75078116 34.31107021 -16.8125 34.35546875 C-15.55429443 34.36167236 -14.29608887 34.36787598 -12.99975586 34.37426758 C-11.56321655 34.38623169 -11.56321655 34.38623169 -10.09765625 34.3984375 C-10.11860352 33.5105957 -10.13955078 32.62275391 -10.16113281 31.70800781 C-10.22941302 28.40549295 -10.27950495 25.1037308 -10.31738281 21.80078125 C-10.33746607 20.37292629 -10.36473877 18.94515325 -10.39941406 17.51757812 C-10.44808294 15.46203382 -10.47065592 13.40757895 -10.48828125 11.3515625 C-10.50922852 10.11567383 -10.53017578 8.87978516 -10.55175781 7.60644531 C-9.64638032 1.21039139 -5.83983015 -0.28274783 0 0 Z " fill="#000000" transform="translate(415.09765625,31.6015625)"/>
<path d="M0 0 C3.38071725 2.60791201 4.83976028 4.06233917 5.56762695 8.3215332 C5.54144287 9.55218506 5.51525879 10.78283691 5.48828125 12.05078125 C5.48120651 12.70958786 5.47413177 13.36839447 5.46684265 14.04716492 C5.43900979 16.13680034 5.37630819 18.22368476 5.3125 20.3125 C5.28740205 21.73498714 5.26459148 23.15751659 5.24414062 24.58007812 C5.18922446 28.05426861 5.10303685 31.5268655 5 35 C6.82724609 34.93039063 6.82724609 34.93039063 8.69140625 34.859375 C10.31507948 34.82183342 11.93877945 34.78543583 13.5625 34.75 C14.36236328 34.71648437 15.16222656 34.68296875 15.98632812 34.6484375 C21.87101047 34.55236105 25.18180946 35.57865397 30 39 C34.72762082 44.97173156 35.14896901 49.53075576 35.14044189 56.94403076 C35.14341302 57.7503473 35.14638414 58.55666384 35.1494453 59.38741422 C35.15812542 62.09259653 35.15963997 64.79773455 35.16113281 67.50292969 C35.16576148 69.44125462 35.17078621 71.37957865 35.17617798 73.31790161 C35.1892995 78.58662857 35.19574649 83.85534278 35.20018864 89.12408352 C35.20311983 92.41607014 35.20722474 95.70805328 35.21169281 99.00003815 C35.22536724 109.30073364 35.2350341 119.60142118 35.2388947 129.90212512 C35.24337511 141.79116169 35.26092249 153.68008328 35.2898953 165.56908488 C35.31151493 174.75987507 35.32159914 183.95063291 35.32293582 193.14144826 C35.32398366 198.63021976 35.3298872 204.11888315 35.34775543 209.60762787 C35.36424085 214.77208479 35.36638927 219.9363524 35.35761642 225.10082626 C35.3568463 226.99384188 35.36118552 228.88686769 35.37107468 230.77985764 C35.38380711 233.36947442 35.37791045 235.95842203 35.36749268 238.54803467 C35.37957728 239.6645995 35.37957728 239.6645995 35.39190602 240.80372119 C35.33931654 246.41531886 34.49406455 252.30604173 30.54806638 256.56830287 C26.82539165 259.73307498 24.45339265 261.12968928 19.6484375 261.09765625 C18.79765625 261.09443359 17.946875 261.09121094 17.0703125 261.08789062 C16.18085938 261.07951172 15.29140625 261.07113281 14.375 261.0625 C13.4778125 261.05798828 12.580625 261.05347656 11.65625 261.04882812 C9.43743352 261.03702591 7.21874982 261.02056155 5 261 C5.02618408 261.88260498 5.05236816 262.76520996 5.0793457 263.67456055 C5.16480275 266.9641158 5.22735745 270.25248422 5.2746582 273.54272461 C5.29973147 274.96381291 5.33379999 276.38477313 5.37719727 277.80541992 C5.43817858 279.85367462 5.46627762 281.90021883 5.48828125 283.94921875 C5.51446533 285.17987061 5.54064941 286.41052246 5.56762695 287.6784668 C4.84017007 291.93526285 3.36922061 293.38363688 0 296 C-3.80595431 296.53416903 -5.99445927 296.55569356 -9.375 294.6875 C-12.58043567 291.35877834 -12.1167676 287.73978057 -12.09765625 283.36328125 C-12.09443359 282.06455078 -12.09121094 280.76582031 -12.08789062 279.42773438 C-12.07953531 278.05598892 -12.07107037 276.68424413 -12.0625 275.3125 C-12.05748335 273.92903805 -12.05292073 272.54557437 -12.04882812 271.16210938 C-12.03702529 267.77469605 -12.02056019 264.38736967 -12 261 C-13.21816406 261.04640625 -14.43632812 261.0928125 -15.69140625 261.140625 C-17.31507948 261.17816658 -18.93877945 261.21456417 -20.5625 261.25 C-21.76229492 261.30027344 -21.76229492 261.30027344 -22.98632812 261.3515625 C-28.88194253 261.44781743 -32.23882728 260.55469508 -37 257 C-40.89517865 252.28984965 -41.57623002 248.4778103 -41.50793457 242.54298401 C-41.51417453 241.70566819 -41.5204145 240.86835236 -41.52684355 240.00566334 C-41.54276472 237.20734429 -41.53017279 234.40989737 -41.51757812 231.61157227 C-41.52299967 229.60236097 -41.53012251 227.59315365 -41.53881836 225.58395386 C-41.55705182 220.13143453 -41.54998366 214.679218 -41.53730202 209.22669339 C-41.52717315 203.51911686 -41.53656752 197.8115662 -41.54284668 192.10398865 C-41.55012399 182.51809029 -41.54053375 172.93231519 -41.52148438 163.34643555 C-41.49972175 152.26735091 -41.50676235 141.18856079 -41.52879 130.1094833 C-41.54694896 120.595081 -41.54949967 111.0807673 -41.53903532 101.56635326 C-41.53280236 95.88481408 -41.53195931 90.20341327 -41.54518127 84.52188301 C-41.55674606 79.17921178 -41.54870224 73.83691972 -41.52560425 68.4942894 C-41.52032029 66.53474876 -41.52182555 64.57517614 -41.53065491 62.61564827 C-41.5416065 59.93800296 -41.52785161 57.26156809 -41.50793457 54.58399963 C-41.51685746 53.81083784 -41.52578034 53.03767605 -41.53497362 52.24108511 C-41.45583107 46.74538552 -40.14865481 43.52849078 -37 39 C-31.54910332 34.82255137 -27.28609649 34.46826993 -20.5625 34.75 C-19.32209961 34.77707031 -19.32209961 34.77707031 -18.05664062 34.8046875 C-16.03725067 34.8513786 -14.01846555 34.92310607 -12 35 C-12.01571045 34.14768799 -12.0314209 33.29537598 -12.04760742 32.41723633 C-12.09888962 29.23968774 -12.13642482 26.06235087 -12.16479492 22.88452148 C-12.17983432 21.51205483 -12.20027133 20.13963586 -12.22631836 18.76733398 C-12.26291221 16.78911344 -12.27816698 14.81053486 -12.29296875 12.83203125 C-12.3086792 11.64327393 -12.32438965 10.4545166 -12.34057617 9.22973633 C-11.96668746 5.68409204 -11.12877583 3.82941835 -9 1 C-5.86128812 -0.56935594 -3.46144178 -0.35201103 0 0 Z " fill="#000000" transform="translate(207,85)"/>
<path d="M0 0 C3.34375543 1.05854455 4.88513872 2.99071638 7.09765625 5.6640625 C7.6652832 8.9855957 7.6652832 8.9855957 7.5859375 12.71484375 C7.57886276 13.37365036 7.57178802 14.03245697 7.5644989 14.71122742 C7.53666604 16.80086284 7.47396444 18.88774726 7.41015625 20.9765625 C7.3850583 22.39904964 7.36224773 23.82157909 7.34179688 25.24414062 C7.28688071 28.71833111 7.2006931 32.190928 7.09765625 35.6640625 C9.03318359 35.57705078 9.03318359 35.57705078 11.0078125 35.48828125 C12.72522404 35.44135744 14.44267497 35.3958601 16.16015625 35.3515625 C17.00771484 35.30966797 17.85527344 35.26777344 18.72851562 35.22460938 C24.07570495 35.12138178 27.35504922 35.8164251 31.62280273 39.09301758 C35.95339414 43.70605445 36.53276335 47.85898567 36.4853363 54.00082397 C36.49072184 54.83728537 36.49610738 55.67374677 36.50165612 56.53555548 C36.5159572 59.33684183 36.50882666 62.13765708 36.50170898 64.93896484 C36.50741147 66.94802735 36.51437525 68.95708661 36.52250671 70.96614075 C36.54046775 76.42279884 36.53926405 81.87929638 36.53356433 87.33597517 C36.5304764 91.89118473 36.5365606 96.44636328 36.54260308 101.00156844 C36.55665669 111.74846764 36.55508035 122.49528736 36.54370117 133.2421875 C36.53222186 144.32862648 36.54629069 155.41482351 36.57309765 166.5012306 C36.59525184 176.0198507 36.60189256 185.53839484 36.59602123 195.0570389 C36.59264947 200.74195626 36.5950813 206.42671855 36.61227226 212.11161423 C36.62773448 217.45836027 36.62379365 222.80474788 36.60496712 228.15147972 C36.60127911 230.11263777 36.60439585 232.07382234 36.61485291 234.03495598 C36.62805014 236.71482845 36.61652668 239.39351218 36.59886169 242.07333374 C36.6132692 243.23409961 36.6132692 243.23409961 36.62796777 244.41831529 C36.55351679 249.91776943 35.25026731 253.13352719 32.09765625 257.6640625 C25.15548649 263.5422227 15.62559276 262.01293263 7.09765625 261.6640625 C7.1133667 262.95038574 7.1133667 262.95038574 7.12939453 264.26269531 C7.16353921 267.45327763 7.18858584 270.64376662 7.20751953 273.83447266 C7.21755878 275.21373565 7.23119302 276.59297746 7.24853516 277.97216797 C7.27287379 279.9579139 7.2830888 281.943817 7.29296875 283.9296875 C7.3086792 285.72067871 7.3086792 285.72067871 7.32470703 287.54785156 C7.10601623 290.54932402 6.72890831 292.17660418 5.09765625 294.6640625 C1.92482786 297.22673159 -1.16294037 296.71198989 -5 296.34375 C-7.72765634 295.36918695 -8.44262542 294.1592335 -9.90234375 291.6640625 C-10.24291992 288.45605469 -10.24291992 288.45605469 -10.1953125 284.7109375 C-10.19106766 284.05071594 -10.18682281 283.39049438 -10.18244934 282.71026611 C-10.1657181 280.61110859 -10.12807926 278.51292754 -10.08984375 276.4140625 C-10.07478959 274.98699308 -10.06110246 273.55990854 -10.04882812 272.1328125 C-10.01583376 268.64291433 -9.96409118 265.1535838 -9.90234375 261.6640625 C-11.10890625 261.72207031 -12.31546875 261.78007812 -13.55859375 261.83984375 C-29.24135244 262.37171233 -29.24135244 262.37171233 -34.55859375 258.09375 C-39.79885806 252.51835251 -40.0512243 247.05640596 -40.04278564 239.72003174 C-40.04575677 238.9137152 -40.04872789 238.10739866 -40.05178905 237.27664828 C-40.06046917 234.57146597 -40.06198372 231.86632795 -40.06347656 229.16113281 C-40.06810523 227.22280788 -40.07312996 225.28448385 -40.07852173 223.34616089 C-40.09164325 218.07743393 -40.09809024 212.80871972 -40.10253239 207.53997898 C-40.10546358 204.24799236 -40.10956849 200.95600922 -40.11403656 197.66402435 C-40.12771099 187.36332886 -40.13737785 177.06264132 -40.14123845 166.76193738 C-40.14571886 154.87290081 -40.16326624 142.98397922 -40.19223905 131.09497762 C-40.21385868 121.90418743 -40.22394289 112.71342959 -40.22527957 103.52261424 C-40.22632741 98.03384274 -40.23223095 92.54517935 -40.25009918 87.05643463 C-40.2665846 81.89197771 -40.26873302 76.7277101 -40.25996017 71.56323624 C-40.25919005 69.67022062 -40.26352927 67.77719481 -40.27341843 65.88420486 C-40.28615086 63.29458808 -40.2802542 60.70564047 -40.26983643 58.11602783 C-40.27789283 57.37165128 -40.28594923 56.62727473 -40.29424977 55.86034131 C-40.24166029 50.24874364 -39.3964083 44.35802077 -35.45041013 40.09575963 C-31.7277354 36.93098752 -29.3557364 35.53437322 -24.55078125 35.56640625 C-23.7 35.56962891 -22.84921875 35.57285156 -21.97265625 35.57617188 C-21.08320313 35.58455078 -20.19375 35.59292969 -19.27734375 35.6015625 C-18.38015625 35.60607422 -17.48296875 35.61058594 -16.55859375 35.61523438 C-14.33977727 35.62703659 -12.12109357 35.64350095 -9.90234375 35.6640625 C-9.92329102 34.78145752 -9.94423828 33.89885254 -9.96582031 32.98950195 C-10.0341847 29.70000681 -10.08423324 26.41127156 -10.12207031 23.12133789 C-10.14212796 21.70031793 -10.16938153 20.27937991 -10.20410156 18.85864258 C-10.25288386 16.81050355 -10.27536914 14.76345975 -10.29296875 12.71484375 C-10.31391602 11.48419189 -10.33486328 10.25354004 -10.35644531 8.9855957 C-9.46580788 2.47101381 -6.48362837 0.12889917 0 0 Z " fill="#000000" transform="translate(309.90234375,140.3359375)"/>
</svg>
